<?xml version="1.0" encoding="UTF-8"?>
<svg viewBox="0 0 24 24" xmlns="http://www.w3.org/2000/svg" version="1.1">
    <!--Generated by IJSVG (https://github.com/iconjar/IJSVG)-->
    <g>
        <g>
            <g>
                <g>
                    <g transform="translate(2.99 4.988)">
                        <g>
                            <path d="M7.18 4.233H9.99302C12.8904 4.24469 15.24 6.59429 15.24 9.493 15.24 12.3149 13.0005 14.6249 10.206 14.7386L10.042 14.741 10 14.744H4.5C1.59759 14.744-.75 12.4-.75 9.504 -.75 8.37012-.38028 7.27012.307566 6.38408 .42596 6.23158.597552 6.1318.785537 6.10278L.91 6.094C1.32421 6.094 1.66 6.42979 1.66 6.844 1.66 7.01659 1.6017 7.17556 1.50373 7.3023L1.444 7.369 1.3546 7.49459C1.00493 8.01479.799186 8.62628.757783 9.26383L.75 9.504C.75 11.5044 2.31915 13.1357 4.30053 13.2388L4.5 13.244H9.961L9.99 13.243C11.9891 13.243 13.6309 11.6657 13.7348 9.69168L13.74 9.493C13.74 7.48853 12.1663 5.85017 10.189 5.73898L9.99 5.733H7.18C6.76579 5.733 6.43 5.39721 6.43 4.983 6.43 4.6033 6.71215 4.28951 7.07823 4.23985L7.18 4.233Z" stroke="none" fill="#323232"/>
                            <path d="M13.5-.75C16.3974-.75 18.75 1.59898 18.75 4.5 18.75 5.53941 18.4391 6.55469 17.8595 7.41065L17.765 7.542 17.7576 7.55854C17.6437 7.75298 17.4447 7.89155 17.2118 7.92315L17.11 7.93C16.7303 7.93 16.4165 7.64785 16.3668 7.28177L16.36 7.17C16.36 7.00719 16.413 6.8488 16.5109 6.71876 16.9905 6.08213 17.25 5.30139 17.25 4.5 17.25 2.49476 15.6762.858663 13.699.755195L13.5.75H7.99C5.91421.75 4.24 2.42421 4.24 4.5 4.24 6.5035 5.81152 8.13965 7.79076 8.23562L7.99 8.24004H10.79C11.2042 8.24004 11.54 8.57582 11.54 8.99004 11.54 9.36973 11.2578 9.68353 10.8918 9.73319L10.79 9.74007H7.993C5.09192 9.75164 2.74 7.39971 2.74 4.5 2.74 1.66839 4.96996-.632362 7.77326-.74563L7.99-.75H13.5Z" stroke="none" fill="#323232"/>
                        </g>
                    </g>
                    <polygon points="0 0 24 0 24 24 0 24" fill-rule="evenodd" stroke="none" fill="none"/>
                </g>
            </g>
        </g>
    </g>
</svg>