<?xml version="1.0" encoding="UTF-8"?>
<svg viewBox="0 0 24 24" xmlns="http://www.w3.org/2000/svg" version="1.1">
    <!--Generated by IJSVG (https://github.com/iconjar/IJSVG)-->
    <g>
        <g>
            <g>
                <g>
                    <g transform="translate(3 3)">
                        <g>
                            <path d="M11.2653 3.25C11.9348 3.25024 12.5768 3.51626 13.0503 3.98959 13.3432 4.28245 13.3433 4.75732 13.0504 5.05026 12.7842 5.31656 12.3675 5.34082 12.0739 5.12301L11.9897 5.0504C11.7974 4.85815 11.5367 4.7501 11.2648 4.75 10.7948 4.74985 10.3905 5.06812 10.2733 5.51344L10.2501 5.6273 9.23416 12.5892C9.05328 13.8302 7.98892 14.7504 6.73473 14.75 6.06523 14.7498 5.42322 14.4837 4.94974 14.0104 4.65681 13.7176 4.65674 13.2427 4.94959 12.9497 5.21582 12.6834 5.63248 12.6592 5.92613 12.877L6.01025 12.9496C6.20257 13.1419 6.46334 13.2499 6.73524 13.25 7.20519 13.2501 7.60949 12.9319 7.72667 12.4866L7.74986 12.3727 8.76584 5.41083C8.94672 4.16979 10.0111 3.2496 11.2653 3.25Z" stroke="none" fill="#323232"/>
                            <path d="M12.26 7.8C12.6742 7.8 13.01 8.13579 13.01 8.55 13.01 8.9297 12.7278 9.24349 12.3618 9.29315L12.26 9.3H6.26C5.84579 9.3 5.51 8.96421 5.51 8.55 5.51 8.1703 5.79215 7.85651 6.15823 7.80685L6.26 7.8H12.26Z" stroke="none" fill="#323232"/>
                            <path d="M9-.75C3.61522-.75-.75 3.61522-.75 9 -.75 14.3848 3.61522 18.75 9 18.75 14.3848 18.75 18.75 14.3848 18.75 9 18.75 3.61522 14.3848-.75 9-.75ZM9 .75C13.5563.75 17.25 4.44365 17.25 9 17.25 13.5563 13.5563 17.25 9 17.25 4.44365 17.25.75 13.5563.75 9 .75 4.44365 4.44365.75 9 .75Z" stroke="none" fill="#323232"/>
                        </g>
                    </g>
                    <polygon points="24 24 0 24 0 0 24 0" fill-rule="evenodd" stroke="none" fill="none"/>
                </g>
            </g>
        </g>
    </g>
</svg>