<?xml version="1.0" encoding="UTF-8"?>
<svg viewBox="0 0 24 24" xmlns="http://www.w3.org/2000/svg" version="1.1">
    <!--Generated by IJSVG (https://github.com/iconjar/IJSVG)-->
    <g>
        <g>
            <g>
                <g>
                    <g transform="translate(3.00006 3)">
                        <g>
                            <path d="M2.10571 2.10571C5.91332-1.7019 12.0867-1.7019 15.8943 2.10571 19.7019 5.91332 19.7019 12.0867 15.8943 15.8943 12.0867 19.7019 5.9133 19.7019 2.10571 15.8943 -1.7019 12.0867-1.7019 5.9133 2.10571 2.10571ZM14.6297 2.9692C11.395-.0540581 6.32108.011665 3.16637 3.16637 -.0554564 6.38818-.0554564 11.6118 3.16637 14.8336 6.38818 18.0554 11.6118 18.0554 14.8336 14.8336 17.9883 11.6789 18.054 6.60498 15.0308 3.3703L14.8336 3.16637 14.6297 2.9692Z" stroke="none" fill="#323232"/>
                            <path d="M4.07661 7.00467L3.94035 7.1515C2.97202 8.28989 3.03553 9.95325 4.07661 10.9943L4.22301 11.1303C5.36071 12.099 7.02516 12.0354 8.06627 10.9943L9.53027 9.53033C9.82309 9.23751 9.82317 8.76277 9.53045 8.46985L8.06627 7.00467C6.96438 5.90278 5.1785 5.90278 4.07661 7.00467ZM7.00561 8.06533L7.939 8.999 7.00561 9.93367C6.51818 10.4211 5.73832 10.4509 5.21776 10.008L5.11573 9.91297C4.64979 9.44619 4.62004 8.66705 5.06314 8.14569L5.15825 8.04349C5.65338 7.54922 6.4895 7.54922 7.00561 8.06533Z" stroke="none" fill="#323232"/>
                            <path d="M9.93361 7.00567L8.46961 8.46967C8.17679 8.76249 8.17671 9.23723 8.46943 9.53015L9.93343 10.9951C11.0355 12.0972 12.8214 12.0972 13.9233 10.9953L14.0595 10.8485C15.0279 9.71011 14.9643 8.04675 13.9233 7.00567L13.7541 6.84946C12.6392 5.90102 10.9747 5.96456 9.93361 7.00567ZM12.6747 7.9097L12.774 7.985 12.8842 8.08703C13.3501 8.55381 13.3798 9.33295 12.9367 9.85431L12.8416 9.95651 12.7383 10.0488C12.2364 10.4485 11.476 10.4164 10.9943 9.93467L10.06 9 10.9943 8.06633C11.4492 7.6114 12.1589 7.55514 12.6747 7.9097Z" stroke="none" fill="#323232"/>
                        </g>
                    </g>
                    <polygon points="0 0 24 0 24 24 0 24" fill-rule="evenodd" stroke="none" fill="none"/>
                </g>
            </g>
        </g>
    </g>
</svg>