<?xml version="1.0" encoding="UTF-8"?>
<svg viewBox="0 0 24 24" preserveAspectRatio="xMidYMid" xmlns="http://www.w3.org/2000/svg" version="1.1">
    <!--Generated by IJSVG (https://github.com/iconjar/IJSVG)-->
    <g>
        <g>
            <g>
                <path d="M12 2.25C17.3848 2.25 21.75 6.61522 21.75 12 21.75 17.3848 17.3848 21.75 12 21.75 6.61522 21.75 2.25 17.3848 2.25 12 2.25 6.61522 6.61522 2.25 12 2.25ZM12 3.75C7.44365 3.75 3.75 7.44365 3.75 12 3.75 16.5563 7.44365 20.25 12 20.25 16.5563 20.25 20.25 16.5563 20.25 12 20.25 7.44365 16.5563 3.75 12 3.75Z" fill="#2332dd"/>
                <path d="M9.88778 8.47871C10.4364 8.16809 11.1097 8.17657 11.6503 8.50093L14.9812 10.4994C15.5082 10.8157 15.8307 11.3853 15.8307 12 15.8307 12.6147 15.5082 13.1843 14.9811 13.5006L11.6503 15.4991C11.1097 15.8235 10.4364 15.832 9.88775 15.5213 9.33912 15.2107 9 14.6289 9 13.9985V10.0015C9 9.37106 9.33915 8.78934 9.88778 8.47871ZM10.8786 9.78719C10.8014 9.74085 10.7052 9.73964 10.6268 9.78401 10.5484 9.82839 10.5 9.91149 10.5 10.0015V13.9985C10.5 14.0886 10.5484 14.1717 10.6268 14.216 10.7052 14.2604 10.8014 14.2592 10.8786 14.2129L14.2093 12.2144C14.2846 12.1692 14.3307 12.0878 14.3307 12 14.3307 11.9122 14.2846 11.8308 14.2094 11.7856L10.8786 9.78719Z" fill="#2332dd"/>
            </g>
        </g>
    </g>
</svg>