<?xml version="1.0" encoding="UTF-8"?>
<svg viewBox="0 0 24 24" xmlns="http://www.w3.org/2000/svg" version="1.1">
    <!--Generated by IJSVG (https://github.com/iconjar/IJSVG)-->
    <g>
        <g>
            <g>
                <g>
                    <rect fill-rule="evenodd" stroke="none" width="24" height="24" fill="none"/>
                    <path d="M12.0001 7.24999C12.3798 7.25003 12.6936 7.53222 12.7432 7.8983L12.7501 8.00007 12.75 9.00007C12.7499 9.41428 12.4141 9.75004 11.9999 9.74999 11.6202 9.74996 11.3064 9.46777 11.2568 9.10169L11.25 8.99992 11.2501 7.99992C11.2501 7.58571 11.5859 7.24995 12.0001 7.24999Z" stroke="none" fill="#323232"/>
                    <path d="M12.0001 14.25C12.3798 14.25 12.6936 14.5322 12.7432 14.8983L12.7501 15.0001 12.75 16.0001C12.7499 16.4143 12.4141 16.75 11.9999 16.75 11.6202 16.75 11.3064 16.4678 11.2568 16.1017L11.25 15.9999 11.2501 14.9999C11.2501 14.5857 11.5859 14.25 12.0001 14.25Z" stroke="none" fill="#323232"/>
                    <path d="M7.88644 9.6249C8.07632 9.29609 8.47758 9.16545 8.81943 9.30551L8.91098 9.35048 9.77695 9.85056C10.1357 10.0577 10.2585 10.5164 10.0514 10.8751 9.86149 11.2039 9.46023 11.3345 9.11838 11.1945L9.02683 11.1495 8.16086 10.6494C7.80216 10.4423 7.6793 9.9836 7.88644 9.6249Z" stroke="none" fill="#323232"/>
                    <path d="M13.9486 13.1249C14.1385 12.7961 14.5398 12.6655 14.8816 12.8055L14.9732 12.8505 15.8391 13.3506C16.1978 13.5577 16.3207 14.0164 16.1136 14.3751 15.9237 14.7039 15.5224 14.8345 15.1806 14.6945L15.089 14.6495 14.223 14.1494C13.8643 13.9423 13.7415 13.4836 13.9486 13.1249Z" stroke="none" fill="#323232"/>
                    <path d="M9.02701 12.8505C9.38575 12.6434 9.84443 12.7664 10.0515 13.1251 10.2413 13.454 10.1538 13.8668 9.86159 14.0928L9.77687 14.1496 8.91081 14.6495C8.55206 14.8566 8.09338 14.7336 7.88631 14.3749 7.6965 14.046 7.78399 13.6332 8.07622 13.4072L8.16094 13.3504 9.02701 12.8505Z" stroke="none" fill="#323232"/>
                    <path d="M15.0892 9.35048C15.4479 9.14341 15.9066 9.26636 16.1137 9.62511 16.3035 9.95395 16.216 10.3668 15.9238 10.5928L15.8391 10.6496 14.973 11.1495C14.6143 11.3566 14.1556 11.2336 13.9485 10.8749 13.7587 10.546 13.8462 10.1332 14.1384 9.9072L14.2231 9.85039 15.0892 9.35048Z" stroke="none" fill="#323232"/>
                    <path d="M5.66127 4.56732C2.11498 7.60385 1.22518 12.723 3.50208 16.7682L3.647 17.018 3.26732 19.2939C3.20077 19.6922 3.33078 20.0981 3.61635 20.3837L3.71583 20.4731C3.99204 20.6958 4.35214 20.7919 4.70622 20.7327L6.981 20.352 7.23162 20.4979C11.3611 22.8223 16.6098 21.8467 19.6196 18.1139 22.7524 14.2286 22.4519 8.60654 18.9228 5.0774 15.3937 1.54826 9.77167 1.24762 5.88636 4.38028L5.66127 4.56732ZM17.8621 6.13805C20.8492 9.12517 21.1036 13.8838 18.452 17.1723 15.8003 20.4609 11.096 21.2211 7.54346 18.9353L7.44584 18.8823C7.31135 18.8216 7.16113 18.8017 7.014 18.8263L4.804 19.195 5.1737 16.9858C5.20442 16.802 5.16555 16.6132 5.06467 16.4564 2.77889 12.9039 3.53929 8.19952 6.82787 5.54799 10.0434 2.95538 14.6643 3.14105 17.6604 5.94296L17.8621 6.13805Z" stroke="none" fill="#323232"/>
                </g>
            </g>
        </g>
    </g>
</svg>