<?xml version="1.0" encoding="UTF-8"?>
<svg viewBox="0 0 24 24" xmlns="http://www.w3.org/2000/svg" version="1.1">
    <!--Generated by IJSVG (https://github.com/iconjar/IJSVG)-->
    <g>
        <g>
            <g>
                <g>
                    <g transform="translate(3 3)">
                        <g>
                            <path d="M7.76167-.23633L6.00667 1.51867C5.95904 1.5663 5.89469 1.593 5.828 1.593H3.346C2.37779 1.593 1.593 2.37779 1.593 3.346V5.851C1.593 5.90209 1.57301 5.95033 1.53667 5.98667L-.23633 7.75967C-.921336 8.44293-.921336 9.55332-.23633 10.2383L1.51867 11.9933C1.5663 12.041 1.593 12.1053 1.593 12.172V14.654C1.593 15.6222 2.37779 16.407 3.346 16.407H5.827C5.89428 16.407 5.95685 16.433 6.00389 16.4805L7.76167 18.2383C8.44493 18.9233 9.55532 18.9233 10.2403 18.2383L11.9953 16.4833C12.043 16.4357 12.1073 16.409 12.174 16.409H14.656C15.6242 16.409 16.409 15.6242 16.409 14.656V12.174C16.409 12.1073 16.4357 12.043 16.4833 11.9953L18.2383 10.2403C18.9233 9.55707 18.9233 8.44668 18.2383 7.76167L16.4833 6.00667C16.4357 5.95904 16.409 5.89469 16.409 5.828V3.346C16.409 2.37779 15.6242 1.593 14.656 1.593H12.174C12.1073 1.593 12.043 1.5663 11.9953 1.51867L10.241-.235652C9.55707-.921336 8.44668-.921336 7.76167-.23633ZM9.17899.823652L10.9347 2.57933C11.2634 2.90803 11.7092 3.093 12.174 3.093H14.656C14.7958 3.093 14.909 3.20621 14.909 3.346V5.828C14.909 6.29285 15.094 6.73863 15.4227 7.06733L17.1777 8.82233C17.2767 8.92132 17.2767 9.08093 17.1783 9.17899L15.4227 10.9347C15.094 11.2634 14.909 11.7092 14.909 12.174V14.656C14.909 14.7958 14.7958 14.909 14.656 14.909H12.174C11.7092 14.909 11.2634 15.094 10.9347 15.4227L9.17967 17.1777C9.08068 17.2767 8.92107 17.2767 8.82301 17.1783L7.06733 15.4227C6.74077 15.0926 6.29404 14.907 5.827 14.907H3.346C3.20621 14.907 3.093 14.7938 3.093 14.654V12.172C3.093 11.7072 2.90803 11.2614 2.57933 10.9327L.82433 9.17767C.725336 9.07868.725336 8.91907.823652 8.82101L2.59733 7.04733C2.91493 6.72973 3.093 6.29999 3.093 5.851V3.346C3.093 3.20621 3.20621 3.093 3.346 3.093H5.828C6.29285 3.093 6.73863 2.90803 7.06733 2.57933L8.82233.82433C8.92132.725336 9.08093.725336 9.17899.823652Z" stroke="none" fill="#323232"/>
                            <path d="M11.4697 6.96967C11.7626 6.67678 12.2374 6.67678 12.5303 6.96967 12.7966 7.23594 12.8208 7.6526 12.6029 7.94621L12.5303 8.03033 8.78033 11.7803C8.51406 12.0466 8.0974 12.0708 7.80379 11.8529L7.71967 11.7803 5.46967 9.53033C5.17678 9.23744 5.17678 8.76256 5.46967 8.46967 5.73594 8.2034 6.1526 8.1792 6.44621 8.39705L6.53033 8.46967 8.25 10.189 11.4697 6.96967Z" stroke="none" fill="#32cd32"/>
                        </g>
                    </g>
                    <polygon points="0 0 24 0 24 24 0 24" fill-rule="evenodd" stroke="none"  fill="none"/>
                </g>
            </g>
        </g>
    </g>
</svg>