<svg xmlns="http://www.w3.org/2000/svg" viewBox="0 0 24 24"><defs><style>.a{fill:#323232;}</style></defs><path class="a" d="M11.40723,22.53418a.74993.74993,0,0,1-.31055-1.43262l4.208-1.916a2.7569,2.7569,0,0,1,1.13867-.24707H17.5a.75.75,0,0,1,0,1.5H16.44336a1.25078,1.25078,0,0,0-.5166.11181l-4.209,1.91651A.74517.74517,0,0,1,11.40723,22.53418Z"/><path class="a" d="M6.52441,15.08252a.74985.74985,0,0,1-.2539-1.45557l2.30273-.8291a2.739,2.739,0,0,1,2.30567.22119.75.75,0,0,1-.75391,1.29688,1.23915,1.23915,0,0,0-1.044-.10694l-2.30273.82911A.74818.74818,0,0,1,6.52441,15.08252Z"/><path class="a" d="M10.78906,17.53271a2.25641,2.25641,0,0,1-1.22461-4.15039l2.60938-1.69043a2.74235,2.74235,0,0,1,2.60351-.209l3.02442,1.33154a.74992.74992,0,1,1-.60352,1.373L14.17383,12.856a1.24987,1.24987,0,0,0-1.18457.09472L10.37988,14.6416a.75561.75561,0,0,0,.7295,1.31934l1.52636-.7124a.75014.75014,0,1,1,.63477,1.35937l-1.52637.7124A2.26133,2.26133,0,0,1,10.78906,17.53271Z"/><path class="a" d="M10.50586,22.75439a2.74345,2.74345,0,0,1-1.84668-.71728L7.27344,20.78076a1.24446,1.24446,0,0,0-.74219-.3081.74969.74969,0,0,1-.68555-.80909.76193.76193,0,0,1,.8086-.686,2.73212,2.73212,0,0,1,1.626.69141L9.667,20.92578a1.2449,1.2449,0,0,0,1.6836-.00342L13.33594,19.104a1.24779,1.24779,0,0,0-.02051-1.86279l-.85547-.748a.74991.74991,0,0,1,.98633-1.12988l.85644.74854a2.74956,2.74956,0,0,1,.0459,4.09863l-1.98535,1.81836A2.74744,2.74744,0,0,1,10.50586,22.75439Z"/><path class="a" d="M5.5,21.75H3a.75.75,0,0,1,0-1.5H5.5A.25048.25048,0,0,0,5.75,20V14a.25048.25048,0,0,0-.25-.25H3a.75.75,0,0,1,0-1.5H5.5A1.75213,1.75213,0,0,1,7.25,14v6A1.75213,1.75213,0,0,1,5.5,21.75Z"/><path class="a" d="M21,21.75H18.5A1.75213,1.75213,0,0,1,16.75,20V14a1.75213,1.75213,0,0,1,1.75-1.75H21a.75.75,0,0,1,0,1.5H18.5a.25048.25048,0,0,0-.25.25v6a.25048.25048,0,0,0,.25.25H21a.75.75,0,0,1,0,1.5Z"/><path class="a" d="M21,10.75a.7502.7502,0,0,1-.75-.75V4.25a1.50164,1.50164,0,0,0-1.5-1.5H5.25a1.50164,1.50164,0,0,0-1.5,1.5V10a.75.75,0,0,1-1.5,0V4.25a3.00328,3.00328,0,0,1,3-3h13.5a3.00328,3.00328,0,0,1,3,3V10A.7502.7502,0,0,1,21,10.75Z"/><path class="a" d="M8,9.25a.74671.74671,0,0,1-.53027-.21973l-1.25-1.25A.74992.74992,0,0,1,7.28027,6.71973l1.25,1.25A.75.75,0,0,1,8,9.25Z"/><path class="a" d="M8,9.25a.75.75,0,0,1-.53027-1.28027l2-2a.74992.74992,0,0,1,1.06054,1.06054l-2,2A.74671.74671,0,0,1,8,9.25Z"/><path class="a" d="M17,8.75H12.5a.75.75,0,0,1,0-1.5H17a.75.75,0,0,1,0,1.5Z"/></svg>