<?xml version="1.0" encoding="UTF-8"?>
<svg viewBox="0 0 24 24" xmlns="http://www.w3.org/2000/svg" version="1.1">
    <!--Generated by IJSVG (https://github.com/iconjar/IJSVG)-->
    <g>
        <g>
            <g>
                <g>
                    <g transform="translate(4 4)">
                        <g>
                            <path d="M1.65667 1.65667C4.86556-1.55222 10.0684-1.55222 13.2773 1.65667 16.4862 4.86556 16.4862 10.0684 13.2773 13.2773 10.0684 16.4862 4.86556 16.4862 1.65667 13.2773 -1.55222 10.0684-1.55222 4.86556 1.65667 1.65667ZM12.0311 2.53858C9.39662.095642 5.27943.155226 2.71733 2.71733 .0942233 5.34044.0942233 9.59356 2.71733 12.2167 5.34044 14.8398 9.59356 14.8398 12.2167 12.2167 14.7788 9.65457 14.8384 5.53738 12.3954 2.90294L12.2167 2.71733 12.0311 2.53858Z" stroke="none" fill="#323232"/>
                            <path d="M3.93 7.14C4.3097 7.14 4.62349 7.42215 4.67315 7.78823L4.68 7.89V8.89C4.68 9.30421 4.34421 9.64 3.93 9.64 3.5503 9.64 3.23651 9.35785 3.18685 8.99177L3.18 8.89V7.89C3.18 7.47579 3.51579 7.14 3.93 7.14Z" stroke="none" fill="#323232"/>
                            <path d="M7.25 6.14C7.6297 6.14 7.94349 6.42215 7.99315 6.78823L8 6.89V8.89C8 9.30421 7.66421 9.64 7.25 9.64 6.8703 9.64 6.55651 9.35785 6.50685 8.99177L6.5 8.89V6.89C6.5 6.47579 6.83579 6.14 7.25 6.14Z" stroke="none" fill="#323232"/>
                            <path d="M10.57 5.14C10.9497 5.14 11.2635 5.42215 11.3132 5.78823L11.32 5.89V8.89C11.32 9.30421 10.9842 9.64 10.57 9.64 10.1903 9.64 9.87651 9.35785 9.82685 8.99177L9.82 8.89V5.89C9.82 5.47579 10.1558 5.14 10.57 5.14Z" stroke="none" fill="#323232"/>
                            <path d="M12.2197 12.2197C12.4859 11.9534 12.9026 11.9292 13.1962 12.1471L13.2803 12.2197 16.5303 15.4697C16.8232 15.7626 16.8232 16.2374 16.5303 16.5303 16.2641 16.7966 15.8474 16.8208 15.5538 16.6029L15.4697 16.5303 12.2197 13.2803C11.9268 12.9874 11.9268 12.5126 12.2197 12.2197Z" stroke="none" fill="#323232"/>
                        </g>
                    </g>
                    <polygon points="0 0 24 0 24 24 0 24" fill-rule="evenodd" stroke="none" fill="none"/>
                </g>
            </g>
        </g>
    </g>
</svg>