<?xml version="1.0" encoding="UTF-8"?>
<svg viewBox="0 0 24 24" xmlns="http://www.w3.org/2000/svg" version="1.1">
    <!--Generated by IJSVG (https://github.com/iconjar/IJSVG)-->
    <g>
        <g>
            <g>
                <g>
                    <path d="M12.0679 6.74996C11.6074 6.74996 11.1657 6.93292 10.84 7.25858L7.69809 10.4005C7.41118 10.6874 7.25 11.0765 7.25 11.4823V13.25C7.25 13.8023 7.69772 14.25 8.25 14.25H10.0174C10.4233 14.25 10.8127 14.0888 11.0997 13.8017L14.2414 10.66C14.5671 10.3343 14.75 9.89263 14.75 9.43208 14.75 8.97152 14.5671 8.52983 14.2414 8.20417L13.2958 7.25859C12.9702 6.93292 12.5285 6.74996 12.0679 6.74996ZM12.0679 8.24996C12.1306 8.24996 12.1908 8.27488 12.2352 8.31924L13.1807 9.26483C13.2251 9.30921 13.25 9.36936 13.25 9.43208 13.25 9.49482 13.2251 9.55499 13.1807 9.59934L10.0391 12.741 10.0174 12.75H8.75V11.4823C8.75 11.4743 8.75315 11.4667 8.75875 11.4611L11.9007 8.31924C11.945 8.27488 12.0052 8.24996 12.0679 8.24996Z" stroke="none" fill="#323232"/>
                    <path d="M16 15.75C16.4142 15.75 16.75 16.0858 16.75 16.5 16.75 16.8797 16.4678 17.1935 16.1018 17.2432L16 17.25H8C7.58579 17.25 7.25 16.9142 7.25 16.5 7.25 16.1203 7.53215 15.8065 7.89823 15.7568L8 15.75H16Z" stroke="none" fill="#323232"/>
                    <path d="M16 2.25H8C4.82436 2.25 2.25 4.82436 2.25 8V16C2.25 19.1756 4.82436 21.75 8 21.75H16C19.1756 21.75 21.75 19.1756 21.75 16V8C21.75 4.82436 19.1756 2.25 16 2.25ZM8 3.75H16C18.3472 3.75 20.25 5.65279 20.25 8V16C20.25 18.3472 18.3472 20.25 16 20.25H8C5.65279 20.25 3.75 18.3472 3.75 16V8C3.75 5.65279 5.65279 3.75 8 3.75Z" stroke="none" fill="#323232"/>
                    <polygon points="0 0 24 0 24 24 0 24" fill-rule="evenodd" stroke="none" fill="none"/>
                </g>
            </g>
        </g>
    </g>
</svg>