<svg xmlns="http://www.w3.org/2000/svg" viewBox="0 0 24 24"><defs><style>.a{fill:#323232;}</style></defs><path class="a" d="M14.51465,21.749a1.79468,1.79468,0,0,1-1.09766-.37353l-1.27734-.98877a.2887.2887,0,0,0-.35254-.00147l-1.28613.97754a1.797,1.797,0,0,1-1.77539.22608l-1.26954-.53223a1.79593,1.79593,0,0,1-1.083-1.42529L6.169,18.02881a.29062.29062,0,0,0-.24805-.25049l-1.60156-.21777a1.79594,1.79594,0,0,1-1.415-1.09571l-.52149-1.27392A1.79508,1.79508,0,0,1,2.625,13.417l.98926-1.27734a.29009.29009,0,0,0,.001-.35254L2.6377,10.50049a1.79111,1.79111,0,0,1-.22559-1.77442l.53223-1.27A1.79476,1.79476,0,0,1,4.36816,6.37256l1.60254-.2041a.29012.29012,0,0,0,.251-.248l.21777-1.60059A1.79248,1.79248,0,0,1,7.53516,2.9043l1.27441-.52149a1.79656,1.79656,0,0,1,1.77344.2417l1.27734.98877a.2887.2887,0,0,0,.35254.00147L13.499,2.63721a1.79585,1.79585,0,0,1,1.77539-.22608l1.26954.53223a1.79986,1.79986,0,0,1,1.084,1.42334l.20312,1.60449a.29112.29112,0,0,0,.248.25049l1.60156.21777a1.79594,1.79594,0,0,1,1.415,1.09571l.52149,1.27392A1.79508,1.79508,0,0,1,21.375,10.583l-.98926,1.27734a.29009.29009,0,0,0-.001.35254l.97753,1.28662a1.79283,1.79283,0,0,1,.22559,1.77637L21.05566,16.544a1.79476,1.79476,0,0,1-1.42382,1.08349l-1.60254.2041a.28962.28962,0,0,0-.251.248l-.21777,1.60059a1.79248,1.79248,0,0,1-1.09571,1.41552l-1.27441.521A1.78711,1.78711,0,0,1,14.51465,21.749Zm-2.55274-2.92236a1.78274,1.78274,0,0,1,1.09571.374L14.335,20.189a.28907.28907,0,0,0,.28711.03907l1.27441-.521a.28949.28949,0,0,0,.17774-.22851l.21777-1.60108h0a1.79243,1.79243,0,0,1,1.54883-1.53418l1.60156-.2041a.2898.2898,0,0,0,.23047-.1748l.53223-1.27a.28922.28922,0,0,0-.03613-.28711l-.97754-1.28662a1.79055,1.79055,0,0,1,.00879-2.17872l.98925-1.27783a.289.289,0,0,0,.03907-.28662L19.707,8.10352a.29115.29115,0,0,0-.22949-.17774L17.877,7.708a1.79341,1.79341,0,0,1-1.53418-1.54785l-.20312-1.60254a.29229.29229,0,0,0-.17676-.231l-1.26855-.53174a.28949.28949,0,0,0-.28711.03613l-1.28614.978a1.79053,1.79053,0,0,1-2.17871-.00976L9.665,3.811a.28827.28827,0,0,0-.28711-.03956L8.10352,4.293a.28949.28949,0,0,0-.17774.22851L7.708,6.12256A1.79243,1.79243,0,0,1,6.15918,7.65674l-1.60156.2041a.2898.2898,0,0,0-.23047.1748l-.53223,1.27a.2916.2916,0,0,0,.03613.28711l.97754,1.28662a1.79055,1.79055,0,0,1-.00879,2.17872l-.98925,1.27783a.289.289,0,0,0-.03907.28662L4.293,15.89648a.29115.29115,0,0,0,.22949.17774l1.60059.21777a1.7929,1.7929,0,0,1,1.53418,1.54737l.2041,1.60253a.28974.28974,0,0,0,.17578.23145l1.26855.53174a.29219.29219,0,0,0,.28711-.03613l1.28614-.978A1.78672,1.78672,0,0,1,11.96191,18.82666Z"/><path class="a" d="M12.00586,16.249a4.24927,4.24927,0,1,1,3.92676-5.85791h0A4.24774,4.24774,0,0,1,12.00586,16.249Zm-.00977-6.998a2.7484,2.7484,0,0,0-2.54,3.78955,2.74852,2.74852,0,1,0,5.0879-2.08106V10.959A2.753,2.753,0,0,0,11.99609,9.251Z"/></svg>