<svg xmlns="http://www.w3.org/2000/svg" viewBox="0 0 24 24"><defs><style>.a{fill:#323232;}</style></defs><path class="a" d="M18,9.75A3.75,3.75,0,1,1,21.75,6,3.7541,3.7541,0,0,1,18,9.75Zm0-6A2.25,2.25,0,1,0,20.25,6,2.25246,2.25246,0,0,0,18,3.75Z"/><path class="a" d="M16,14.75H8a.75.75,0,0,1,0-1.5h8a.75.75,0,0,1,0,1.5Z"/><path class="a" d="M12,10.75H8a.75.75,0,0,1,0-1.5h4a.75.75,0,0,1,0,1.5Z"/><path class="a" d="M12,22.25a10.20707,10.20707,0,0,1-5.23291-1.44531l-2.561.42822a1.2503,1.2503,0,0,1-1.439-1.43945l.42822-2.561A10.2379,10.2379,0,0,1,12,1.75a.75.75,0,0,1,0,1.5A8.7381,8.7381,0,0,0,4.61475,16.67725a.75015.75015,0,0,1,.10644.52539l-.417,2.49316,2.49316-.417a.75193.75193,0,0,1,.52588.10644A8.73772,8.73772,0,0,0,20.75,12a.75.75,0,0,1,1.5,0A10.26162,10.26162,0,0,1,12,22.25Z"/></svg>