<?xml version="1.0" encoding="UTF-8"?>
<svg viewBox="0 0 24 24" xmlns="http://www.w3.org/2000/svg" version="1.1">
    <!--Generated by IJSVG (https://github.com/iconjar/IJSVG)-->
    <g>
        <g>
            <g>
                <g>
                    <g transform="translate(1.93399 3)">
                        <g>
                            <path d="M7.88031 6.81437C9.08742 5.60726 11.0445 5.60726 12.2516 6.81437 13.4587 8.02148 13.4587 9.9786 12.2516 11.1857 11.0445 12.3928 9.08741 12.3928 7.88031 11.1857 6.6732 9.97859 6.6732 8.02147 7.88031 6.81437ZM11.0775 7.77183C10.4525 7.25585 9.52574 7.29025 8.94096 7.87503 8.31964 8.49634 8.31964 9.50371 8.94097 10.125 9.56228 10.7464 10.5697 10.7464 11.191 10.125 11.7758 9.54027 11.8102 8.61353 11.2942 7.98852L11.191 7.87503 11.0775 7.77183Z" stroke="none" fill="#323232"/>
                            <path d="M16.0048 6.97977C17.1206 5.86404 18.9295 5.86404 20.0452 6.97976 21.161 8.09549 21.161 9.90444 20.0452 11.0202 18.9295 12.1359 17.1206 12.1359 16.0048 11.0202 14.8891 9.90445 14.8891 8.0955 16.0048 6.97977ZM18.8744 7.94151C18.3415 7.51284 17.5601 7.54581 17.0655 8.04042 16.5355 8.57037 16.5355 9.42957 17.0655 9.95951 17.5954 10.4895 18.4546 10.4895 18.9846 9.95952 19.4792 9.4649 19.5122 8.68347 19.0835 8.15061L18.9846 8.04043 18.8744 7.94151Z" stroke="none" fill="#323232"/>
                            <path d="M.0867962 6.97977C1.20252 5.86404 3.01147 5.86404 4.1272 6.97976 5.24293 8.09549 5.24293 9.90444 4.12721 11.0202 3.01148 12.1359 1.20253 12.1359.0867962 11.0202 -1.02893 9.90445-1.02893 8.0955.0867962 6.97977ZM2.95636 7.94151C2.4235 7.51284 1.64207 7.54581 1.14746 8.04042 .617514 8.57037.617514 9.42957 1.14745 9.95951 1.6774 10.4895 2.5366 10.4895 3.06654 9.95952 3.56116 9.4649 3.59413 8.68347 3.16547 8.15061L3.06655 8.04043 2.95636 7.94151Z" stroke="none" fill="#323232"/>
                            <path d="M12.0248.0867962C13.1406-1.02893 14.9495-1.02893 16.0652.0867945 17.181 1.20252 17.181 3.01147 16.0652 4.12721 14.9495 5.24293 13.1406 5.24293 12.0248 4.12721 10.9091 3.01148 10.9091 1.20253 12.0248.0867962ZM14.8944 1.04854C14.3615.61987 13.5801.652844 13.0855 1.14745 12.5555 1.6774 12.5555 2.5366 13.0855 3.06654 13.6154 3.59649 14.4746 3.59649 15.0046 3.06655 15.4992 2.57193 15.5322 1.7905 15.1035 1.25764L15.0046 1.14746 14.8944 1.04854Z" stroke="none" fill="#323232"/>
                            <path d="M4.0668 13.8728C5.18252 12.757 6.99147 12.757 8.1072 13.8728 9.22293 14.9885 9.22293 16.7974 8.10721 17.9132 6.99148 19.0289 5.18253 19.0289 4.0668 17.9132 2.95107 16.7974 2.95107 14.9885 4.0668 13.8728ZM6.93636 14.8345C6.4035 14.4058 5.62207 14.4388 5.12746 14.9334 4.59751 15.4634 4.59751 16.3226 5.12745 16.8525 5.6574 17.3825 6.5166 17.3825 7.04654 16.8525 7.54116 16.3579 7.57413 15.5765 7.14547 15.0436L7.04655 14.9334 6.93636 14.8345Z" stroke="none" fill="#323232"/>
                            <path d="M4.0668.0867962C5.18252-1.02893 6.99147-1.02893 8.1072.0867945 9.22293 1.20252 9.22293 3.01147 8.10721 4.12721 6.99148 5.24293 5.18253 5.24293 4.0668 4.12721 2.95107 3.01148 2.95107 1.20253 4.0668.0867962ZM6.93636 1.04854C6.4035.61987 5.62207.652844 5.12746 1.14745 4.59751 1.6774 4.59751 2.5366 5.12745 3.06654 5.6574 3.59649 6.5166 3.59649 7.04654 3.06655 7.54116 2.57193 7.57413 1.7905 7.14547 1.25764L7.04655 1.14746 6.93636 1.04854Z" stroke="none" fill="#323232"/>
                            <path d="M12.0248 13.8728C13.1406 12.757 14.9495 12.757 16.0652 13.8728 17.181 14.9885 17.181 16.7974 16.0652 17.9132 14.9495 19.0289 13.1406 19.0289 12.0248 17.9132 10.9091 16.7974 10.9091 14.9885 12.0248 13.8728ZM14.8944 14.8345C14.3615 14.4058 13.5801 14.4388 13.0855 14.9334 12.5555 15.4634 12.5555 16.3226 13.0855 16.8525 13.6154 17.3825 14.4746 17.3825 15.0046 16.8525 15.4992 16.3579 15.5322 15.5765 15.1035 15.0436L15.0046 14.9334 14.8944 14.8345Z" stroke="none" fill="#323232"/>
                            <path d="M8.2464 10.6451C8.45343 10.2864 8.91209 10.1634 9.27086 10.3704 9.59973 10.5602 9.7305 10.9614 9.59055 11.3033L9.54561 11.3948 7.78561 14.4448C7.57858 14.8036 7.11992 14.9266 6.76115 14.7196 6.43228 14.5298 6.30152 14.1286 6.44147 13.7867L6.4864 13.6951 8.2464 10.6451Z" stroke="none" fill="#323232"/>
                            <path d="M6.76115 3.28039C7.09002 3.09062 7.50283 3.17817 7.72881 3.47042L7.78561 3.55514 9.54561 6.60514C9.75264 6.96391 9.62963 7.42257 9.27086 7.6296 8.94199 7.81937 8.52918 7.73183 8.3032 7.43958L8.2464 7.35485 6.4864 4.30485C6.27938 3.94608 6.40239 3.48742 6.76115 3.28039Z" stroke="none" fill="#323232"/>
                            <path d="M15.916 8.25C16.3302 8.25 16.666 8.58578 16.666 9 16.666 9.37969 16.3839 9.69349 16.0178 9.74315L15.916 9.75H12.406C11.9918 9.75 11.656 9.41421 11.656 9 11.656 8.6203 11.9382 8.30651 12.3042 8.25684L12.406 8.25H15.916Z" stroke="none" fill="#323232"/>
                        </g>
                    </g>
                    <polygon points="0 0 24 0 24 24 0 24" fill-rule="evenodd" stroke="none" fill="none"/>
                </g>
            </g>
        </g>
    </g>
</svg>